<svg width="300" height="200" viewBox="0 0 300 200" fill="none" xmlns="http://www.w3.org/2000/svg">
<rect width="300" height="200" fill="#3A4D4B"/>
<path d="M150.504 77.8284C152.067 76.2663 154.599 76.2663 156.161 77.8284L169.837 91.5045C171.399 93.0666 171.399 95.5993 169.837 97.1614L164.933 102.066L145.6 82.7332L150.504 77.8284Z" fill="#F7B320"/>
<path d="M164.933 86.5997L169.837 91.5045C171.399 93.0666 171.399 95.5992 169.837 97.1613L153.333 113.666L145.6 105.933L164.933 86.5997Z" fill="#F7B320"/>
<path d="M150.161 122.837C148.599 124.4 146.067 124.4 144.504 122.837L130.828 109.161C129.266 107.599 129.266 105.067 130.828 103.505L135.733 98.5998L155.066 117.933L150.161 122.837Z" fill="#F7F7F7"/>
<path d="M135.733 114.066L130.828 109.161C129.266 107.599 129.266 105.067 130.828 103.505L147.333 87L155.066 94.7332L135.733 114.066Z" fill="#F7F7F7"/>
</svg>
