<svg width="45" height="51" viewBox="0 0 45 51" fill="none" xmlns="http://www.w3.org/2000/svg">
<path d="M22.5045 2.82843C24.0666 1.26633 26.5992 1.26633 28.1613 2.82843L41.8374 16.5045C43.3995 18.0666 43.3995 20.5993 41.8374 22.1614L36.9326 27.0661L17.5997 7.73317L22.5045 2.82843Z" fill="#F7B320"/>
<path d="M36.9326 11.5997L41.8374 16.5045C43.3995 18.0666 43.3995 20.5992 41.8374 22.1613L25.3329 38.6658L17.5997 30.9327L36.9326 11.5997Z" fill="#F7B320"/>
<path d="M22.1614 47.8375C20.5993 49.3996 18.0666 49.3996 16.5045 47.8375L2.82844 34.1614C1.26634 32.5993 1.26634 30.0666 2.82844 28.5045L7.73319 23.5998L27.0661 42.9327L22.1614 47.8375Z" fill="#3A4D4B"/>
<path d="M7.73322 39.0662L2.82847 34.1614C1.26637 32.5993 1.26637 30.0667 2.82847 28.5046L19.333 12.0001L27.0662 19.7332L7.73322 39.0662Z" fill="#3A4D4B"/>
</svg>
