<svg width="350" height="91" viewBox="0 0 350 91" fill="none" xmlns="http://www.w3.org/2000/svg">
<path d="M273.253 91V82.16L334.483 6.24001L335.913 11.31H274.163V0H347.613V8.84L286.643 84.76L285.083 79.69H349.303V91H273.253Z" fill="#3A4D4B"/>
<path d="M167.118 91L208.328 0H221.198L262.538 91H248.888L212.098 7.28H217.298L180.508 91H167.118Z" fill="#3A4D4B"/>
<path d="M87.7195 91V0H123.209C131.183 0 137.986 1.25667 143.619 3.77001C149.253 6.28334 153.586 9.92334 156.619 14.69C159.653 19.4567 161.169 25.1333 161.169 31.72C161.169 38.3067 159.653 43.9833 156.619 48.75C153.586 53.43 149.253 57.07 143.619 59.67C137.986 62.1833 131.183 63.44 123.209 63.44H94.8695L100.719 57.33V91H87.7195ZM100.719 58.63L94.8695 52.13H122.819C131.139 52.13 137.423 50.3533 141.669 46.8C146.003 43.2467 148.169 38.22 148.169 31.72C148.169 25.22 146.003 20.1933 141.669 16.64C137.423 13.0867 131.139 11.31 122.819 11.31H94.8695L100.719 4.81V58.63Z" fill="#3A4D4B"/>
<path d="M11.7 43.03H58.63V54.21H11.7V43.03ZM13 91H0V0H64.22V11.31H13V91Z" fill="#3A4D4B"/>
</svg>
