<svg width="369" height="97" viewBox="0 0 369 97" fill="none" xmlns="http://www.w3.org/2000/svg">
<path d="M21.501 43.4375H67.9832V61.3125H21.501V43.4375ZM23.1611 96.375H0.75V0.125H73.9318V18H23.1611V96.375Z" fill="white"/>
<path d="M87.0568 96.375V0.125H129.676C138.49 0.125 146.086 1.54583 152.462 4.3875C158.839 7.1375 163.762 11.125 167.231 16.35C170.701 21.575 172.436 27.8083 172.436 35.05C172.436 42.2 170.701 48.3875 167.231 53.6125C163.762 58.8375 158.839 62.8708 152.462 65.7125C146.086 68.4625 138.49 69.8375 129.676 69.8375H99.7159L109.843 59.8V96.375H87.0568ZM109.843 62.275L99.7159 51.6875H128.41C135.443 51.6875 140.694 50.2208 144.163 47.2875C147.633 44.3542 149.368 40.275 149.368 35.05C149.368 29.7333 147.633 25.6083 144.163 22.675C140.694 19.7417 135.443 18.275 128.41 18.275H99.7159L109.843 7.6875V62.275Z" fill="white"/>
<path d="M172.436 96.375L211.217 0.125H231.105L270.011 96.375H248.88L217.059 11.4H225.015L193.069 96.375H172.436Z" fill="white"/>
<path d="M283.136 96.375V81.9375L343.543 10.1625L346.333 18.275H284.252V0.125H366.423V14.5625L306.155 86.3375L303.365 78.225H368.515V96.375H283.136Z" fill="white"/>
</svg>
