<svg width="25" height="25" viewBox="0 0 25 25" fill="none" xmlns="http://www.w3.org/2000/svg">
<g clip-path="url(#clip0_20_7)">
<path d="M0.859795 12.6025C0.859202 14.5835 1.37684 16.5178 2.36106 18.2227L0.765625 24.0479L6.72698 22.4848C8.36933 23.38 10.2186 23.8525 12.1006 23.8529H12.1056C18.303 23.8529 23.3479 18.8098 23.3505 12.6113C23.3517 9.60764 22.183 6.78326 20.0597 4.65834C17.9368 2.53354 15.1134 1.36276 12.1051 1.36145C5.90693 1.36145 0.8624 6.40421 0.859795 12.6025Z" fill="url(#paint0_linear_20_7)"/>
<path d="M0.458316 12.5989C0.457606 14.6512 0.993839 16.6547 2.01312 18.4206L0.360474 24.4547L6.53563 22.8356C8.23708 23.7633 10.1527 24.2524 12.1021 24.2531H12.107C18.5268 24.2531 23.7529 19.0286 23.7557 12.6083C23.7567 9.49666 22.546 6.57079 20.3469 4.36969C18.1475 2.16885 15.2231 0.956014 12.107 0.954712C5.68608 0.954712 0.460921 6.17834 0.458316 12.5989ZM4.13568 18.1166L3.90516 17.7505C2.93586 16.2094 2.42427 14.4284 2.42498 12.5996C2.42711 7.26314 6.77018 2.92149 12.1107 2.92149C14.6969 2.92256 17.1275 3.93071 18.9556 5.75996C20.7837 7.58934 21.7896 10.0212 21.7889 12.6076C21.7865 17.9442 17.4433 22.2864 12.107 22.2864H12.1033C10.3657 22.2855 8.66161 21.8189 7.17541 20.9372L6.82171 20.7274L3.15726 21.6881L4.13568 18.1166Z" fill="url(#paint1_linear_20_7)"/>
<path d="M9.19561 7.73104C8.97754 7.24632 8.74811 7.23662 8.54069 7.22809C8.37096 7.22087 8.17681 7.22132 7.98291 7.22132C7.78876 7.22132 7.47344 7.29429 7.20681 7.58544C6.93994 7.87672 6.18799 8.58082 6.18799 10.0128C6.18799 11.4449 7.23109 12.8286 7.37644 13.023C7.52201 13.217 9.38999 16.2496 12.3483 17.4163C14.8071 18.3858 15.3074 18.193 15.841 18.1444C16.3747 18.096 17.5631 17.4406 17.8056 16.7609C18.0482 16.0813 18.0482 15.4988 17.9754 15.3771C17.9027 15.2558 17.7086 15.183 17.4175 15.0375C17.1264 14.8919 15.6955 14.1877 15.4287 14.0906C15.1618 13.9936 14.9678 13.9452 14.7737 14.2365C14.5796 14.5276 14.0222 15.183 13.8523 15.3771C13.6826 15.5716 13.5127 15.5959 13.2217 15.4503C12.9305 15.3043 11.9931 14.9973 10.8811 14.0058C10.0158 13.2343 9.43169 12.2816 9.26184 11.9902C9.09209 11.6992 9.24371 11.5415 9.38964 11.3964C9.52041 11.266 9.68081 11.0566 9.82639 10.8867C9.97161 10.7167 10.02 10.5954 10.1171 10.4013C10.2142 10.207 10.1656 10.0371 10.0929 9.89149C10.02 9.74592 9.45444 8.30659 9.19561 7.73104Z" fill="white"/>
</g>
<defs>
<linearGradient id="paint0_linear_20_7" x1="1130.01" y1="2270.01" x2="1130.01" y2="1.36253" gradientUnits="userSpaceOnUse">
<stop stop-color="#1FAF38"/>
<stop offset="1" stop-color="#60D669"/>
</linearGradient>
<linearGradient id="paint1_linear_20_7" x1="1170.12" y1="2350.96" x2="1170.12" y2="0.95177" gradientUnits="userSpaceOnUse">
<stop stop-color="#F9F9F9"/>
<stop offset="1" stop-color="white"/>
</linearGradient>
<clipPath id="clip0_20_7">
<rect width="24" height="24" fill="white" transform="translate(0.0581055 0.704712)"/>
</clipPath>
</defs>
</svg>
